<svg width="48" height="50" viewBox="0 0 48 50" fill="none" xmlns="http://www.w3.org/2000/svg">
    <path d="M3 24.5455H0H3ZM10.875 24.5455H7.875H10.875ZM24 38.0114V41.0114V38.0114ZM37.125 24.5455H40.125H37.125ZM24 0C17.6096 0 11.497 2.60522 7.00242 7.21657L11.2991 11.4045C14.681 7.9347 19.2513 6 24 6V0ZM7.00242 7.21657C2.51037 11.8253 0 18.0601 0 24.5455H6C6 19.6024 7.91462 14.8769 11.2991 11.4045L7.00242 7.21657ZM0 24.5455C0 31.0308 2.51037 37.2656 7.00242 41.8743L11.2991 37.6864C7.91462 34.2141 6 29.4885 6 24.5455H0ZM7.00242 41.8743C11.497 46.4857 17.6096 49.0909 24 49.0909V43.0909C19.2513 43.0909 14.681 41.1562 11.2991 37.6864L7.00242 41.8743ZM24 49.0909C30.3904 49.0909 36.503 46.4857 40.9976 41.8743L36.7009 37.6864C33.319 41.1562 28.7487 43.0909 24 43.0909V49.0909ZM40.9976 41.8743C45.4896 37.2656 48 31.0308 48 24.5455H42C42 29.4885 40.0854 34.2141 36.7009 37.6864L40.9976 41.8743ZM48 24.5455C48 18.0601 45.4896 11.8253 40.9976 7.21657L36.7009 11.4045C40.0854 14.8769 42 19.6024 42 24.5455H48ZM40.9976 7.21657C36.503 2.60522 30.3904 0 24 0V6C28.7487 6 33.319 7.9347 36.7009 11.4045L40.9976 7.21657ZM24 8.07955C19.6982 8.07955 15.5886 9.83353 12.5709 12.9297L16.8676 17.1176C18.7726 15.163 21.3399 14.0795 24 14.0795V8.07955ZM12.5709 12.9297C9.55568 16.0232 7.875 20.2029 7.875 24.5455H13.875C13.875 21.7453 14.9599 19.0747 16.8676 17.1176L12.5709 12.9297ZM7.875 24.5455C7.875 28.888 9.55568 33.0677 12.5709 36.1612L16.8676 31.9733C14.9599 30.0162 13.875 27.3457 13.875 24.5455H7.875ZM12.5709 36.1612C15.5886 39.2574 19.6982 41.0114 24 41.0114V35.0114C21.3399 35.0114 18.7726 33.9279 16.8676 31.9733L12.5709 36.1612ZM24 41.0114C28.3018 41.0114 32.4114 39.2574 35.4291 36.1612L31.1324 31.9733C29.2274 33.9279 26.6601 35.0114 24 35.0114V41.0114ZM35.4291 36.1612C38.4443 33.0677 40.125 28.888 40.125 24.5455H34.125C34.125 27.3457 33.0401 30.0162 31.1324 31.9733L35.4291 36.1612ZM40.125 24.5455C40.125 20.2029 38.4443 16.0232 35.4291 12.9297L31.1324 17.1176C33.0401 19.0747 34.125 21.7453 34.125 24.5455H40.125ZM35.4291 12.9297C32.4114 9.83353 28.3018 8.07955 24 8.07955V14.0795C26.6601 14.0795 29.2274 15.163 31.1324 17.1176L35.4291 12.9297ZM14.2217 11.4538C9.32015 15.4769 6.43687 20.4443 5.91796 26.3006C5.40846 32.0506 7.21227 38.2739 10.8791 44.8575L16.1209 41.938C12.7877 35.9534 11.529 30.9551 11.8945 26.8301C12.2506 22.8114 14.1799 19.2504 18.0283 16.0916L14.2217 11.4538ZM33.7783 37.6371C38.6676 33.6241 41.561 28.7095 42.0818 22.8896C42.5927 17.18 40.7831 11.0021 37.1209 4.42674L31.8791 7.34623C35.2169 13.339 36.4698 18.2861 36.1057 22.3548C35.7515 26.3133 33.8324 29.8305 29.9717 32.9993L33.7783 37.6371Z" fill="url(#paint0_linear)"/>
    <defs>
    <linearGradient id="paint0_linear" x1="24" y1="3" x2="24" y2="46.0909" gradientUnits="userSpaceOnUse">
    <stop stop-color="#007BFF"/>
    <stop offset="1"/>
    </linearGradient>
    </defs>
    </svg>
    