<svg width="101" height="100" viewBox="0 0 101 100" fill="none" xmlns="http://www.w3.org/2000/svg">
<path d="M75.45 10.8722C56.2389 11.2306 42.8611 1.525 33.6028 1.7C24.3445 1.875 5.00281 7.55833 5.80003 50.1444C6.59725 92.7305 32.8667 98.4889 43.05 98.3C90.7278 97.4083 109.469 10.2361 75.45 10.8722Z" fill="#EFEFEF"/>
<path d="M18.8491 9.46974L22.7774 5.54137L24.7416 7.50556L20.8132 11.4339L18.8491 9.46974Z" fill="#A4AFC1"/>
<path d="M7.55463 20.7623L11.485 16.832L13.4491 18.7962L9.51881 22.7265L7.55463 20.7623Z" fill="#A4AFC1"/>
<path d="M7.55798 7.01567L9.52217 5.05149L13.4525 8.98182L11.4883 10.946L7.55798 7.01567Z" fill="#A4AFC1"/>
<path d="M92.8028 42.8973C90.5056 42.8973 88.6362 41.0278 88.6362 38.7306C88.6362 36.4334 90.5056 34.5639 92.8028 34.5639C95.1001 34.5639 96.9695 36.4334 96.9695 38.7306C96.9695 41.0278 95.1001 42.8973 92.8028 42.8973ZM92.8028 37.3417C92.0389 37.3417 91.4139 37.9639 91.4139 38.7306C91.4139 39.4973 92.0389 40.1195 92.8028 40.1195C93.5667 40.1195 94.1917 39.4973 94.1917 38.7306C94.1917 37.9639 93.5667 37.3417 92.8028 37.3417Z" fill="#A4AFC1"/>
<path d="M78.9722 31.25H22.0278C20.4944 31.25 19.25 30.0056 19.25 28.4722V21.5278C19.25 19.9944 20.4944 18.75 22.0278 18.75H78.9722C80.5056 18.75 81.75 19.9944 81.75 21.5278V28.4722C81.75 30.0056 80.5056 31.25 78.9722 31.25Z" fill="#007BFF"/>
<path d="M75.5 56.25C72.0472 56.25 69.25 53.4528 69.25 50C69.25 46.5472 72.0472 43.75 75.5 43.75C78.9528 43.75 81.75 46.5472 81.75 50C81.75 53.4528 78.9528 56.25 75.5 56.25Z" fill="#007BFF"/>
<path d="M75.5 81.25C72.0472 81.25 69.25 78.4528 69.25 75C69.25 71.5472 72.0472 68.75 75.5 68.75C78.9528 68.75 81.75 71.5472 81.75 75C81.75 78.4528 78.9528 81.25 75.5 81.25Z" fill="#007BFF"/>
<path d="M25.5 28.4722V21.5278C25.5 19.9944 26.7444 18.75 28.2778 18.75H22.0278C20.4944 18.75 19.25 19.9944 19.25 21.5278V28.4722C19.25 30.0056 20.4944 31.25 22.0278 31.25H28.2778C26.7444 31.25 25.5 30.0056 25.5 28.4722Z" fill="#D5DBE1"/>
<path d="M75.5 50C75.5 47.6917 76.7639 45.7 78.625 44.6167C77.7028 44.0806 76.6444 43.75 75.5 43.75C72.0472 43.75 69.25 46.5472 69.25 50C69.25 53.4528 72.0472 56.25 75.5 56.25C76.6444 56.25 77.7028 55.9194 78.625 55.3833C76.7639 54.3 75.5 52.3083 75.5 50Z" fill="#007BFF"/>
<path d="M75.5 75C75.5 72.6917 76.7639 70.7 78.625 69.6167C77.7028 69.0806 76.6444 68.75 75.5 68.75C72.0472 68.75 69.25 71.5472 69.25 75C69.25 78.4528 72.0472 81.25 75.5 81.25C76.6444 81.25 77.7028 80.9194 78.625 80.3833C76.7639 79.3 75.5 77.3083 75.5 75Z" fill="#007BFF"/>
<path d="M78.9722 33.3334H22.0278C19.3472 33.3334 17.1667 31.1528 17.1667 28.4722V21.5278C17.1667 18.8472 19.3472 16.6667 22.0278 16.6667H78.9722C81.6528 16.6667 83.8333 18.8472 83.8333 21.5278V28.4722C83.8333 31.1528 81.6528 33.3334 78.9722 33.3334ZM22.0278 20.8334C21.6445 20.8334 21.3334 21.1445 21.3334 21.5278V28.4722C21.3334 28.8556 21.6445 29.1667 22.0278 29.1667H78.9722C79.3556 29.1667 79.6667 28.8556 79.6667 28.4722V21.5278C79.6667 21.1445 79.3556 20.8334 78.9722 20.8334H22.0278Z" fill="black"/>
<path d="M19.25 44.4444H59.5278V48.6111H19.25V44.4444Z" fill="black"/>
<path d="M19.25 52.7778H59.5278V56.9444H19.25V52.7778Z" fill="black"/>
<path d="M19.25 69.4444H59.5278V73.6111H19.25V69.4444Z" fill="black"/>
<path d="M19.25 77.7778H59.5278V81.9445H19.25V77.7778Z" fill="black"/>
<path d="M75.5 58.3334C70.9056 58.3334 67.1667 54.5945 67.1667 50.0001C67.1667 45.4056 70.9056 41.6667 75.5 41.6667C80.0945 41.6667 83.8334 45.4056 83.8334 50.0001C83.8334 54.5945 80.0945 58.3334 75.5 58.3334ZM75.5 45.8334C73.2028 45.8334 71.3334 47.7028 71.3334 50.0001C71.3334 52.2973 73.2028 54.1667 75.5 54.1667C77.7972 54.1667 79.6667 52.2973 79.6667 50.0001C79.6667 47.7028 77.7972 45.8334 75.5 45.8334Z" fill="black"/>
<path d="M75.5 83.3334C70.9056 83.3334 67.1667 79.5945 67.1667 75C67.1667 70.4056 70.9056 66.6667 75.5 66.6667C80.0945 66.6667 83.8334 70.4056 83.8334 75C83.8334 79.5945 80.0945 83.3334 75.5 83.3334ZM75.5 70.8334C73.2028 70.8334 71.3334 72.7028 71.3334 75C71.3334 77.2973 73.2028 79.1667 75.5 79.1667C77.7972 79.1667 79.6667 77.2973 79.6667 75C79.6667 72.7028 77.7972 70.8334 75.5 70.8334Z" fill="black"/>
</svg>
