<svg width="101" height="100" viewBox="0 0 101 100" fill="none" xmlns="http://www.w3.org/2000/svg">
<path d="M88.925 23.2695C88.925 42.4833 98.8778 55.6778 98.8778 64.9361C98.8778 74.1945 93.5556 93.6389 50.9639 93.6389C8.37225 93.6389 2.11948 67.4806 2.11948 57.2972C2.11948 9.61113 88.925 -10.7583 88.925 23.2695Z" fill="#EFEFEF"/>
<path d="M10.2139 16.6667C9.29444 16.6667 8.40277 16.3639 7.66388 15.7889C6.7861 15.1055 6.22499 14.1194 6.08888 13.0167C5.94999 11.9139 6.24999 10.8222 6.93333 9.94165C7.61666 9.06387 8.60277 8.50276 9.70555 8.36665C10.8028 8.22221 11.9 8.52776 12.7805 9.2111C13.6611 9.89443 14.2194 10.8805 14.3555 11.9833C14.4944 13.0861 14.1917 14.1805 13.5111 15.0583C12.8278 15.9361 11.8417 16.4972 10.7389 16.6333C10.5639 16.6555 10.3889 16.6667 10.2139 16.6667ZM10.2222 11.1111C10.1639 11.1111 10.1083 11.1139 10.05 11.1222C9.29166 11.2167 8.74999 11.9139 8.84444 12.6722C8.93888 13.4305 9.63055 13.9694 10.3944 13.8778C11.1528 13.7833 11.6944 13.0861 11.6 12.3278C11.5111 11.6278 10.9139 11.1111 10.2222 11.1111Z" fill="#A4AFC1"/>
<path d="M76.1944 75.6945H24.8056C21.7361 75.6945 19.25 73.2084 19.25 70.1389V28.4722H81.75V70.1389C81.75 73.2084 79.2639 75.6945 76.1944 75.6945Z" fill="#F3F3F1"/>
<path d="M81.75 28.4722H19.25V24.3056C19.25 21.2361 21.7361 18.75 24.8056 18.75H76.1944C79.2639 18.75 81.75 21.2361 81.75 24.3056V28.4722Z" fill="#007BFF"/>
<path d="M65.7778 81.25C74.599 81.25 81.75 74.099 81.75 65.2778C81.75 56.4566 74.599 49.3055 65.7778 49.3055C56.9566 49.3055 49.8055 56.4566 49.8055 65.2778C49.8055 74.099 56.9566 81.25 65.7778 81.25Z" fill="#007BFF"/>
<path d="M70.6389 38.1945H30.3611V50.6945H70.6667L70.6389 38.1945Z" fill="#007BFF"/>
<path d="M31.0556 18.75H24.8056C21.7361 18.75 19.25 21.2361 19.25 24.3056V28.4722H25.5V24.3056C25.5 21.2361 27.9861 18.75 31.0556 18.75Z" fill="#007BFF"/>
<path d="M56.0555 65.2778C56.0555 57.5278 61.5778 51.0694 68.9028 49.6167C67.8917 49.4167 66.8472 49.3055 65.7778 49.3055C56.9555 49.3055 49.8055 56.4555 49.8055 65.2778C49.8055 74.1 56.9555 81.25 65.7778 81.25C66.8472 81.25 67.8917 81.1417 68.9028 80.9389C61.5778 79.4861 56.0555 73.0278 56.0555 65.2778Z" fill="#007BFF"/>
<path d="M30.3611 38.1945H36.6111V50.6945H30.3611V38.1945Z" fill="#007BFF"/>
<path d="M25.5 70.1389V28.4722H19.25V70.1389C19.25 73.2084 21.7361 75.6945 24.8056 75.6945H31.0556C27.9861 75.6945 25.5 73.2084 25.5 70.1389Z" fill="#D5DBE1"/>
<path d="M65.7777 83.3333C55.8222 83.3333 47.7222 75.2333 47.7222 65.2778C47.7222 55.3222 55.8222 47.2222 65.7777 47.2222C75.7333 47.2222 83.8333 55.3222 83.8333 65.2778C83.8333 75.2333 75.7333 83.3333 65.7777 83.3333ZM65.7777 51.3889C58.1194 51.3889 51.8888 57.6194 51.8888 65.2778C51.8888 72.9361 58.1194 79.1667 65.7777 79.1667C73.4361 79.1667 79.6666 72.9361 79.6666 65.2778C79.6666 57.6194 73.4361 51.3889 65.7777 51.3889Z" fill="black"/>
<path d="M63 72.9167C62.4472 72.9167 61.9166 72.6972 61.5277 72.3056L55.9722 66.75L58.9194 63.8028L62.9 67.7833L71.1555 58.35L74.2916 61.0944L64.5694 72.2056C64.1888 72.6389 63.6472 72.8972 63.0694 72.9167C63.0472 72.9167 63.0222 72.9167 63 72.9167Z" fill="black"/>
<path d="M46.3612 52.7777H30.3612C29.2112 52.7777 28.2778 51.8444 28.2778 50.6944V38.1944C28.2778 37.0444 29.2112 36.1111 30.3612 36.1111H70.639C71.789 36.1111 72.7223 37.0444 72.7223 38.1944V41.4722H68.5556V40.2778H32.4445V48.6111H46.3612V52.7777Z" fill="black"/>
<path d="M28.4167 56.9167H44.3889V61.0833H28.4167V56.9167Z" fill="black"/>
<path d="M28.4167 65.25H43.6667V69.4167H28.4167V65.25Z" fill="black"/>
<path d="M43.8055 77.7778H24.8055C20.5916 77.7778 17.1666 74.3528 17.1666 70.1389V24.3056C17.1666 20.0917 20.5916 16.6667 24.8055 16.6667H76.1944C80.4083 16.6667 83.8333 20.0917 83.8333 24.3056V47H79.6666V24.3056C79.6666 22.3917 78.1083 20.8333 76.1944 20.8333H24.8055C22.8916 20.8333 21.3333 22.3917 21.3333 24.3056V70.1389C21.3333 72.0528 22.8916 73.6111 24.8055 73.6111H43.8055V77.7778Z" fill="black"/>
<path d="M19.25 26.3889H81.75V30.5556H19.25V26.3889Z" fill="black"/>
</svg>
