<svg width="101" height="100" viewBox="0 0 101 100" fill="none" xmlns="http://www.w3.org/2000/svg">
<path d="M23.7694 88.425C42.9833 88.425 56.1778 98.3778 65.4361 98.3778C74.6945 98.3778 94.1389 93.0555 94.1389 50.4639C94.1389 7.87221 67.9806 1.61943 57.7972 1.61943C10.1111 1.61943 -10.2583 88.425 23.7694 88.425Z" fill="#EFEFEF"/>
<path d="M89.3006 21.3403L91.2647 19.3761L95.1931 23.3045L93.2289 25.2687L89.3006 21.3403Z" fill="#A4AFC1"/>
<path d="M78.0079 10.0458L79.9721 8.08165L83.9005 12.01L81.9363 13.9742L78.0079 10.0458Z" fill="#A4AFC1"/>
<path d="M89.3018 12.5027L93.2302 8.57435L95.1944 10.5385L91.266 14.4669L89.3018 12.5027Z" fill="#A4AFC1"/>
<path d="M55.361 72.9166C55.361 72.9166 56.0416 77.8194 59.4722 81.25H59.5277H41.4722C44.9444 77.7778 45.5833 72.9166 45.5833 72.9166H55.361Z" fill="#007BFF"/>
<path d="M78.9722 29.8611C80.5 29.8611 81.75 31.1111 81.75 32.6389V63.1945H19.25V32.6389C19.25 31.1111 20.5 29.8611 22.0278 29.8611H78.9722Z" fill="#F3F3F1"/>
<path d="M22.0278 72.9167H78.9722C80.5056 72.9167 81.75 71.6722 81.75 70.1389V63.1944H19.25V70.1389C19.25 71.6722 20.4944 72.9167 22.0278 72.9167Z" fill="#007BFF"/>
<path d="M69.9445 39.5833C74.1634 39.5833 77.5834 36.1633 77.5834 31.9444C77.5834 27.7256 74.1634 24.3055 69.9445 24.3055C65.7257 24.3055 62.3057 27.7256 62.3057 31.9444C62.3057 36.1633 65.7257 39.5833 69.9445 39.5833Z" fill="#007BFF"/>
<path d="M33.2889 56.25C30.1306 56.25 27.5834 53.8306 27.5834 50.8333C27.5834 47.8361 30.1334 45.4167 33.2889 45.4167H33.3917C34 41.325 37.6917 38.1945 42.1667 38.1945C45.7167 38.1945 48.7862 40.1695 50.1945 43.0333C53.8584 43.225 56.7501 46.1028 56.7501 49.6306C56.7501 53.2889 53.6306 56.25 49.7751 56.25H33.2889Z" fill="#007BFF"/>
<path d="M45.5833 72.9166C45.5833 72.9166 44.9444 77.7778 41.4722 81.25H47.7222C51.1944 77.7778 51.8333 72.9166 51.8333 72.9166H45.5833Z" fill="#007BFF"/>
<path d="M25.5 70.1389V63.1944H19.25V70.1389C19.25 71.6722 20.4944 72.9167 22.0278 72.9167H28.2778C26.7444 72.9167 25.5 71.6722 25.5 70.1389Z" fill="#007BFF"/>
<path d="M68.5557 31.9444C68.5557 28.8417 70.414 26.1833 73.0696 24.9889C72.114 24.5583 71.0612 24.3055 69.9446 24.3055C65.7251 24.3055 62.3057 27.725 62.3057 31.9444C62.3057 36.1639 65.7251 39.5833 69.9446 39.5833C71.0612 39.5833 72.114 39.3305 73.0696 38.9C70.414 37.7055 68.5557 35.0472 68.5557 31.9444Z" fill="#007BFF"/>
<path d="M33.8334 50.8333C33.8334 47.8361 36.3834 45.4167 39.5389 45.4167H39.6417C40.1 42.3417 42.2973 39.8111 45.2612 38.7417C44.2945 38.4 43.2584 38.1945 42.1667 38.1945C37.6889 38.1945 34 41.325 33.3917 45.4167H33.2889C30.1306 45.4167 27.5834 47.8361 27.5834 50.8333C27.5834 53.8306 30.1334 56.25 33.2889 56.25H39.5389C36.3834 56.25 33.8334 53.8306 33.8334 50.8333Z" fill="#007BFF"/>
<path d="M28.2778 29.8611H22.0278C20.5 29.8611 19.25 31.1111 19.25 32.6389V63.1945H25.5V32.6389C25.5 31.1111 26.75 29.8611 28.2778 29.8611Z" fill="#D5DBE1"/>
<path d="M78.9722 75H22.0277C19.3472 75 17.1666 72.8195 17.1666 70.1389V32.6389C17.1666 29.9583 19.3472 27.7778 22.0277 27.7778H50.5V31.9444H22.0277C21.65 31.9444 21.3333 32.2611 21.3333 32.6389V70.1389C21.3333 70.5167 21.65 70.8333 22.0277 70.8333H78.9722C79.35 70.8333 79.6666 70.5167 79.6666 70.1389V47.2222H83.8333V70.1389C83.8333 72.8195 81.6527 75 78.9722 75Z" fill="black"/>
<path d="M19.25 61.1111H81.75V65.2777H19.25V61.1111Z" fill="black"/>
<path d="M59.5277 83.3334H41.4721C40.6277 83.3334 39.8694 82.825 39.5471 82.0473C39.2277 81.2695 39.4027 80.3723 39.9999 79.7778C42.9055 76.8723 43.5166 72.6806 43.5221 72.6389L47.6499 73.1889C47.6305 73.3528 47.2416 76.15 45.586 79.1667H55.3694C53.7277 76.1667 53.3221 73.3667 53.2971 73.2056L57.4221 72.625C57.4305 72.6667 58.0416 76.6778 60.7166 79.5389C61.2583 79.9167 61.611 80.5417 61.611 81.25C61.611 82.4 60.6777 83.3334 59.5277 83.3334Z" fill="black"/>
<path d="M69.9444 41.6667C64.5833 41.6667 60.2222 37.3056 60.2222 31.9445C60.2222 26.5833 64.5833 22.2222 69.9444 22.2222C75.3055 22.2222 79.6666 26.5833 79.6666 31.9445C79.6666 37.3056 75.3055 41.6667 69.9444 41.6667ZM69.9444 26.3889C66.8805 26.3889 64.3888 28.8806 64.3888 31.9445C64.3888 35.0083 66.8805 37.5 69.9444 37.5C73.0083 37.5 75.5 35.0083 75.5 31.9445C75.5 28.8806 73.0083 26.3889 69.9444 26.3889Z" fill="black"/>
<path d="M67.8611 37.5H72.0277V47.2222H67.8611V37.5Z" fill="black"/>
<path d="M67.8611 16.6667H72.0277V26.3889H67.8611V16.6667Z" fill="black"/>
<path d="M73.7604 27.2522L82.6294 22.506L84.5947 26.1786L75.7257 30.9248L73.7604 27.2522Z" fill="black"/>
<path d="M55.3456 37.6523L64.2145 32.9061L66.1799 36.5786L57.3109 41.3249L55.3456 37.6523Z" fill="black"/>
<path d="M55.3517 26.2177L57.317 22.5451L66.186 27.2914L64.2207 30.9639L55.3517 26.2177Z" fill="black"/>
<path d="M73.7767 36.6083L75.7421 32.9358L84.6111 37.682L82.6457 41.3545L73.7767 36.6083Z" fill="black"/>
<path d="M49.7778 58.3333H33.2778C28.9889 58.3333 25.5 54.9694 25.5 50.8333C25.5 47.2139 28.1722 44.1861 31.7111 43.4833C33.1139 39.1833 37.3417 36.1111 42.1667 36.1111C45.2389 36.1111 48.1805 37.35 50.2333 39.5111L47.2111 42.3805C45.9417 41.0444 44.1028 40.2778 42.1667 40.2778C38.8 40.2778 35.9139 42.6194 35.45 45.725C35.2944 46.7444 34.4194 47.5 33.3889 47.5C31.2861 47.5 29.6667 48.9944 29.6667 50.8333C29.6667 52.6722 31.2861 54.1666 33.2778 54.1666H49.7778C52.475 54.1666 54.6667 52.1361 54.6667 49.6389C54.6667 49.2639 54.6278 48.9611 54.55 48.6778L58.5583 47.5444C58.7444 48.1972 58.8333 48.8833 58.8333 49.6389C58.8333 54.4333 54.7722 58.3333 49.7778 58.3333Z" fill="black"/>
</svg>
